<svg width="30" height="24" viewBox="0 0 30 24" fill="none" xmlns="http://www.w3.org/2000/svg">
<path d="M22.2083 -0.00170898H7.79167C3.77187 -0.00170898 0.5 3.13829 0.5 6.99829V18.9983C0.5 21.7553 2.83646 23.9983 5.70833 23.9983H24.2917C27.1635 23.9983 29.5 21.7553 29.5 18.9983V6.99829C29.5 3.13829 26.2281 -0.00170898 22.2083 -0.00170898ZM27.4167 6.99829V8.99829H25.3333V3.00129C26.5979 3.91429 27.4167 5.36629 27.4167 6.99829ZM22.2083 1.99829C22.5646 1.99829 22.9135 2.03329 23.25 2.09929V8.99829H18.125C18.125 7.34429 16.7229 5.99829 15 5.99829C13.2771 5.99829 11.875 7.34429 11.875 8.99829H6.75V2.09929C7.08646 2.03329 7.43542 1.99829 7.79167 1.99829H22.2083ZM13.9583 8.99829C13.9583 8.44729 14.425 7.99829 15 7.99829C15.575 7.99829 16.0417 8.44729 16.0417 8.99829V11.9983C16.0417 12.5493 15.575 12.9983 15 12.9983C14.425 12.9983 13.9583 12.5493 13.9583 11.9983V8.99829ZM4.66667 3.00129V8.99829H2.58333V6.99829C2.58333 5.36629 3.40208 3.91429 4.66667 3.00129ZM25.3333 21.8263V13.9983C25.3333 13.4463 24.8677 12.9983 24.2917 12.9983C23.7156 12.9983 23.25 13.4463 23.25 13.9983V21.9983H6.75V13.9983C6.75 13.4463 6.28437 12.9983 5.70833 12.9983C5.13229 12.9983 4.66667 13.4463 4.66667 13.9983V21.8263C3.45417 21.4133 2.58333 20.3023 2.58333 18.9983V10.9983H11.875V11.9983C11.875 13.6523 13.2771 14.9983 15 14.9983C16.7229 14.9983 18.125 13.6523 18.125 11.9983V10.9983H27.4167V18.9983C27.4167 20.3023 26.5458 21.4133 25.3333 21.8263Z" fill="#231F20"/>
</svg>
