<svg width="27" height="26" viewBox="0 0 27 26" fill="none" xmlns="http://www.w3.org/2000/svg">
<path d="M8.59634 10.56L11.5166 7.70986L12.1289 7.10496L13.589 5.67987L18.5555 10.56L21.4443 7.70986L13.589 0L5.70752 7.70986L8.59634 10.56Z" fill="#F0B90B"/>
<path d="M13.5936 9.73751L10.6924 12.5793L13.5936 15.4212L16.4949 12.5793L13.5936 9.73751Z" fill="#F0B90B"/>
<path d="M18.5555 14.6199L13.589 19.4847L11.841 17.7776L11.5218 17.4598L8.59634 14.6199L5.70752 17.4496L13.589 25.1594L21.4443 17.4496L18.5555 14.6199Z" fill="#F0B90B"/>
<path d="M3.6422 9.74971L0.740967 12.5916L3.6422 15.4334L6.54344 12.5916L3.6422 9.74971Z" fill="#F0B90B"/>
<path d="M23.5255 9.74556L20.6243 12.5874L23.5255 15.4292L26.4267 12.5874L23.5255 9.74556Z" fill="#F0B90B"/>
</svg>
