<svg width="30" height="28" viewBox="0 0 30 28" fill="none" xmlns="http://www.w3.org/2000/svg">
<rect x="0.774414" width="28.7683" height="28" rx="2" fill="#231F20"/>
<path fill-rule="evenodd" clip-rule="evenodd" d="M12.7402 14.3908L17.7108 19.2293L20.8482 16.1757C21.4094 15.6844 22.2672 15.7059 22.8009 16.2253C23.3345 16.7447 23.3573 17.5803 22.8519 18.1258L18.7116 22.1562C18.1552 22.6886 17.2637 22.6886 16.7073 22.1562L10.7345 16.341V19.797C10.7345 20.5601 10.0995 21.1781 9.3155 21.1781C8.53148 21.1781 7.89648 20.5601 7.89648 19.797V8.97934C7.89648 8.21692 8.53148 7.59822 9.3155 7.59822C10.0995 7.59822 10.7345 8.21692 10.7345 8.97934V12.4354L16.7066 6.62151C17.2624 6.08905 18.1552 6.08905 18.7109 6.62151L22.8539 10.6512C23.3587 11.1974 23.3365 12.0323 22.8029 12.5517C22.2692 13.0711 21.4107 13.0933 20.8502 12.6014L17.7128 9.54773L12.7402 14.3908ZM17.7128 13.0077C17.1382 13.0077 16.62 13.3442 16.3998 13.861C16.1797 14.3777 16.3012 14.9723 16.7073 15.3682C17.1134 15.7641 17.7249 15.8823 18.2558 15.6687C18.7868 15.4544 19.1332 14.9507 19.1332 14.3908C19.1332 14.0243 18.9841 13.6728 18.7177 13.4128C18.4518 13.1534 18.09 13.0077 17.7135 13.0077H17.7128Z" fill="#23AF91"/>
</svg>
