<svg width="25" height="25" viewBox="0 0 25 25" fill="none" xmlns="http://www.w3.org/2000/svg">
<path d="M9.77594 4.18609H7.77799C7.77799 1.98235 9.57015 0.190186 11.7739 0.190186C13.9776 0.190186 15.7698 1.98235 15.7698 4.18609H13.7718C13.7718 3.08422 12.8758 2.18814 11.7739 2.18814C10.672 2.18814 9.77594 3.08422 9.77594 4.18609ZM17.7678 11.1789C17.2163 11.1789 16.7688 11.6265 16.7688 12.1779C16.7688 12.7293 17.2163 13.1769 17.7678 13.1769C18.3192 13.1769 18.7667 12.7293 18.7667 12.1779C18.7667 11.6265 18.3192 11.1789 17.7678 11.1789ZM24.7606 11.1789V17.1728H23.1752C22.5109 18.8051 21.3091 20.1827 19.7657 21.0768V24.1656H13.7718V22.1677H11.7739V24.1656H5.78004V21.0888C3.33354 19.6702 1.78413 17.0229 1.78413 14.1759C1.78413 13.0041 2.03787 11.8902 2.49241 10.8872C1.48344 10.4047 0.785156 9.37377 0.785156 8.182C0.785156 6.52969 2.12978 5.18507 3.78209 5.18507V7.18302C3.23165 7.18302 2.78311 7.63056 2.78311 8.182C2.78311 8.65751 3.11677 9.0561 3.56231 9.156C5.02881 7.34385 7.26951 6.18404 9.77594 6.18404H15.7698C15.8817 6.18404 15.9936 6.18704 16.1055 6.19104C17.2173 3.19311 20.7647 3.18711 20.7647 3.18711V7.95523C21.8136 8.79637 22.6557 9.89924 23.1762 11.1789H24.7606ZM22.7626 13.1769H21.7237L21.5109 12.4626C20.7607 9.94319 18.3991 8.182 15.7688 8.182H9.77494C6.46933 8.182 3.78109 10.8702 3.78109 14.1759C3.78109 16.4715 5.12571 18.5943 7.20757 19.5843L7.77699 19.855V22.1667H9.77494V20.1687H15.7688V22.1667H17.7668V19.844L18.3352 19.5733C19.8756 18.8381 21.0324 17.4945 21.5109 15.8891L21.7237 15.1748H22.7626V13.1769Z" fill="#231F20"/>
</svg>
