<svg width="15" height="12" viewBox="0 0 15 12" fill="none" xmlns="http://www.w3.org/2000/svg">
<path d="M13.8656 4.77175C12.9416 3.26696 10.84 0.74231 7.15127 0.74231C3.46258 0.74231 1.36089 3.26696 0.436927 4.77175C0.151297 5.23373 0 5.76615 0 6.3093C0 6.85245 0.151297 7.38486 0.436927 7.84685C1.36089 9.35163 3.46258 11.8763 7.15127 11.8763C10.84 11.8763 12.9416 9.35163 13.8656 7.84685C14.1512 7.38486 14.3025 6.85245 14.3025 6.3093C14.3025 5.76615 14.1512 5.23373 13.8656 4.77175ZM12.8499 7.22313C12.0564 8.51345 10.2603 10.6848 7.15127 10.6848C4.04221 10.6848 2.24612 8.51345 1.45263 7.22313C1.28293 6.94853 1.19304 6.6321 1.19304 6.3093C1.19304 5.98649 1.28293 5.67006 1.45263 5.39546C2.24612 4.10514 4.04221 1.93375 7.15127 1.93375C10.2603 1.93375 12.0564 4.10276 12.8499 5.39546C13.0196 5.67006 13.1095 5.98649 13.1095 6.3093C13.1095 6.6321 13.0196 6.94853 12.8499 7.22313Z" fill="#DFF0FF"/>
<path d="M7.15144 3.33069C6.56233 3.33069 5.98645 3.50538 5.49663 3.83267C5.0068 4.15996 4.62503 4.62516 4.39958 5.16942C4.17414 5.71369 4.11516 6.31258 4.23009 6.89037C4.34502 7.46816 4.6287 7.9989 5.04526 8.41546C5.46183 8.83203 5.99256 9.11571 6.57035 9.23064C7.14814 9.34557 7.74703 9.28658 8.2913 9.06114C8.83557 8.8357 9.30076 8.45392 9.62805 7.9641C9.95534 7.47427 10.13 6.89839 10.13 6.30928C10.1291 5.5196 9.81497 4.76253 9.25658 4.20414C8.69819 3.64575 7.94112 3.33163 7.15144 3.33069ZM7.15144 8.09644C6.79798 8.09644 6.45245 7.99162 6.15855 7.79525C5.86466 7.59887 5.63559 7.31975 5.50033 6.99319C5.36506 6.66663 5.32967 6.3073 5.39863 5.96062C5.46759 5.61395 5.6378 5.29551 5.88773 5.04557C6.13767 4.79563 6.45611 4.62542 6.80279 4.55646C7.14946 4.48751 7.5088 4.5229 7.83536 4.65816C8.16192 4.79343 8.44103 5.02249 8.63741 5.31639C8.83378 5.61029 8.9386 5.95581 8.9386 6.30928C8.9386 6.78326 8.75031 7.23783 8.41515 7.57299C8.08 7.90815 7.62543 8.09644 7.15144 8.09644Z" fill="#DFF0FF"/>
</svg>
