<svg width="24" height="24" viewBox="0 0 24 24" fill="none" xmlns="http://www.w3.org/2000/svg">
<path d="M7.21077 13.5632C3.0874 13.9359 -0.0540367 17.4201 0.000704567 21.5599V21.7698C0.000704567 22.5713 0.650479 23.2211 1.45201 23.2211C2.25353 23.2211 2.90331 22.5713 2.90331 21.7698V21.5018C2.85968 18.96 4.73548 16.7924 7.25721 16.4707C9.91912 16.2067 12.291 18.1506 12.555 20.8126C12.5706 20.9699 12.5785 21.1279 12.5786 21.2861V21.7699C12.5786 22.5714 13.2284 23.2212 14.0299 23.2212C14.8315 23.2212 15.4812 22.5714 15.4812 21.7699V21.2861C15.4765 17.0064 12.0033 13.5409 7.72371 13.5457C7.55255 13.5458 7.38148 13.5517 7.21077 13.5632Z" fill="#231F20"/>
<path d="M7.74173 11.6104C10.9478 11.6104 13.5469 9.01131 13.5469 5.8052C13.5469 2.5991 10.9478 0 7.74173 0C4.53562 0 1.93652 2.5991 1.93652 5.8052C1.93974 9.01004 4.53694 11.6072 7.74173 11.6104ZM7.74173 2.9026C9.34478 2.9026 10.6443 4.20215 10.6443 5.8052C10.6443 7.40826 9.34478 8.70781 7.74173 8.70781C6.13868 8.70781 4.83913 7.40826 4.83913 5.8052C4.83913 4.20215 6.13868 2.9026 7.74173 2.9026Z" fill="#231F20"/>
<path d="M21.2859 7.61938C20.1649 7.67521 19.2999 8.62672 19.3508 9.74794C19.4018 8.62672 18.5368 7.67521 17.4157 7.61938C16.2947 7.67521 15.4297 8.62672 15.4807 9.74794C15.4807 11.4218 17.6634 13.383 18.7509 14.2557C19.1016 14.5364 19.6 14.5364 19.9507 14.2557C21.0382 13.3849 23.2209 11.4218 23.2209 9.74794C23.2719 8.62672 22.4069 7.67526 21.2859 7.61938Z" fill="#231F20"/>
</svg>
