<svg width="18" height="23" viewBox="0 0 18 23" fill="none" xmlns="http://www.w3.org/2000/svg">
<path d="M11.8991 0.588867C12.2021 0.685184 12.4291 0.885703 12.6493 1.10706C14.0175 2.48141 15.3913 3.85013 16.7628 5.2211C17.3041 5.76239 17.3092 6.36113 16.7724 6.89848C15.3175 8.35506 13.862 9.81052 12.4049 11.2648C12.0173 11.6518 11.5532 11.7391 11.1195 11.5177C10.4763 11.1888 10.345 10.3535 10.8666 9.82516C11.6907 8.98985 12.5243 8.16411 13.3545 7.335C13.4086 7.28093 13.4706 7.23418 13.5291 7.18405C13.5229 7.1649 13.5167 7.14518 13.5111 7.12603C13.4334 7.12603 13.3556 7.12603 13.2779 7.12603C9.35765 7.12603 5.43681 7.12603 1.51654 7.12603C0.93695 7.12603 0.525772 6.8123 0.408052 6.28678C0.268926 5.66719 0.740373 5.04705 1.37404 5.01607C1.46529 5.01156 1.55653 5.01382 1.64778 5.01382C5.51905 5.01382 9.39032 5.01382 13.2616 5.01382C13.3421 5.01382 13.4232 5.01382 13.5505 5.01382C13.4655 4.92369 13.4159 4.8685 13.3635 4.81555C12.6144 4.06473 11.8934 3.2818 11.1066 2.57266C10.3653 1.90407 10.5337 0.873875 11.4777 0.588867L11.8996 0.588867L11.8991 0.588867Z" fill="#231F20"/>
<path d="M4.05498 15.641L4.27915 15.641C8.19942 15.641 12.1197 15.641 16.04 15.641C16.7271 15.641 17.1941 16.1 17.1721 16.7478C17.1546 17.2677 16.7294 17.7104 16.2101 17.747C16.1194 17.7532 16.0276 17.751 15.9363 17.751C12.051 17.751 8.16619 17.751 4.28084 17.751C4.20593 17.751 4.13045 17.751 4.01048 17.751C4.0899 17.8371 4.13777 17.8923 4.18959 17.9442C4.99449 18.7485 5.80445 19.5489 6.60428 20.3583C7.11459 20.8753 7.01039 21.6836 6.40094 22.034C5.97118 22.2807 5.46481 22.208 5.08855 21.8351C4.4701 21.2217 3.85558 20.6039 3.23994 19.9876C2.4204 19.1681 1.6003 18.3491 0.781324 17.5285C0.260311 17.0069 0.256368 16.398 0.772312 15.8809C2.23171 14.4193 3.69224 12.9582 5.15445 11.4994C5.65913 10.9958 6.36715 11.0099 6.78058 11.5247C7.12642 11.955 7.0898 12.5431 6.67919 12.9571C5.85796 13.7851 5.03166 14.608 4.20593 15.432C4.15129 15.4861 4.08708 15.5306 4.02681 15.5796C4.03639 15.5999 4.04596 15.6202 4.05554 15.6404L4.05498 15.641Z" fill="#231F20"/>
</svg>
