<svg width="21" height="21" viewBox="0 0 21 21" fill="none" xmlns="http://www.w3.org/2000/svg">
<path d="M17.9375 4.77273H4.8125C4.12213 4.77273 3.47375 4.41382 3.0625 3.81914C3.46237 3.23973 4.0985 2.86364 4.8125 2.86364H19.6875C21.413 2.83118 21.4121 0.0315 19.6875 0H4.8125C2.1595 0 0 2.35486 0 5.25V15.75C0 18.6451 2.1595 21 4.8125 21H17.9375C19.6262 21 21 19.5014 21 17.6591V8.11364C21 6.27136 19.6262 4.77273 17.9375 4.77273ZM18.375 17.6591C18.375 17.9225 18.1781 18.1364 17.9375 18.1364H4.8125C3.60588 18.1364 2.625 17.0654 2.625 15.75V7.05982C3.29262 7.43209 4.04075 7.63636 4.8125 7.63636H17.9375C18.1781 7.63636 18.375 7.85018 18.375 8.11364V17.6591ZM16.625 12.8864C16.5952 14.7687 14.0289 14.7678 14 12.8864C14.0297 11.004 16.5961 11.005 16.625 12.8864Z" fill="#231F20"/>
</svg>
